<svg width="848" height="430" viewBox="0 0 848 430" fill="none" xmlns="http://www.w3.org/2000/svg">
<g id="banner 1">
<g id="Window">
<path id="Vector" d="M615.514 1.13989e-08H8.71681C6.40557 0.00210854 4.18958 0.92415 2.55531 2.56373C0.921042 4.20331 0.00202755 6.42644 0 8.74511V421.25C0.00202755 423.568 0.921042 425.792 2.55531 427.431C4.18958 429.071 6.40557 429.993 8.71681 429.995H615.514C616.774 429.995 618.019 429.721 619.164 429.191C620.308 428.661 621.324 427.888 622.142 426.926C622.211 426.851 622.274 426.77 622.332 426.685C622.852 426.047 623.273 425.334 623.581 424.569C624.02 423.518 624.244 422.389 624.241 421.25V8.74518C624.238 6.42486 623.318 4.20045 621.681 2.56067C620.045 0.92089 617.827 -0.000118309 615.514 1.13989e-08ZM621.752 421.25C621.753 422.47 621.394 423.663 620.722 424.68C620.124 425.574 619.313 426.305 618.363 426.806C617.482 427.262 616.505 427.5 615.514 427.498H8.71681C7.06568 427.496 5.48275 426.837 4.31522 425.665C3.14769 424.494 2.49089 422.906 2.48888 421.25V8.74518C2.49089 7.08874 3.14769 5.50073 4.31522 4.32945C5.48275 3.15817 7.06568 2.49923 8.71681 2.49722H615.514C617.166 2.49701 618.752 3.15489 619.921 4.32636C621.091 5.49783 621.749 7.08711 621.752 8.74518V421.25Z" fill="#3F3D56"/>
<path id="Vector_2" d="M622.991 35.0499H1.24225V37.5499H622.991V35.0499Z" fill="#3F3D56"/>
<path id="Vector_3" d="M22.4241 26.2499C26.5529 26.2499 29.9 22.8921 29.9 18.75C29.9 14.6078 26.5529 11.25 22.4241 11.25C18.2952 11.25 14.9481 14.6078 14.9481 18.75C14.9481 22.8921 18.2952 26.2499 22.4241 26.2499Z" fill="#3F3D56"/>
<path id="Vector_4" d="M43.9173 26.2499C48.0462 26.2499 51.3933 22.8921 51.3933 18.75C51.3933 14.6078 48.0462 11.25 43.9173 11.25C39.7885 11.25 36.4414 14.6078 36.4414 18.75C36.4414 22.8921 39.7885 26.2499 43.9173 26.2499Z" fill="#3F3D56"/>
<path id="Vector_5" d="M65.4107 26.2499C69.5395 26.2499 72.8866 22.8921 72.8866 18.75C72.8866 14.6078 69.5395 11.25 65.4107 11.25C61.2818 11.25 57.9348 14.6078 57.9348 18.75C57.9348 22.8921 61.2818 26.2499 65.4107 26.2499Z" fill="#3F3D56"/>
<path id="Vector_6" d="M468.163 92.9187H156.267C152.82 92.9187 149.515 91.5451 147.078 89.1001C144.641 86.6551 143.271 83.339 143.271 79.8813C143.271 76.4236 144.641 73.1074 147.078 70.6625C149.515 68.2175 152.82 66.8439 156.267 66.8439H468.163C471.609 66.8439 474.915 68.2175 477.352 70.6625C479.789 73.1074 481.158 76.4236 481.158 79.8813C481.158 83.339 479.789 86.6551 477.352 89.1001C474.915 91.5451 471.609 92.9187 468.163 92.9187ZM156.267 68.8496C153.351 68.8496 150.554 70.0119 148.491 72.0807C146.429 74.1496 145.271 76.9555 145.271 79.8813C145.271 82.8071 146.429 85.613 148.491 87.6819C150.554 89.7507 153.351 90.913 156.267 90.913H468.163C471.079 90.913 473.876 89.7507 475.938 87.6819C478 85.613 479.159 82.8071 479.159 79.8813C479.159 76.9555 478 74.1496 475.938 72.0807C473.876 70.0119 471.079 68.8496 468.163 68.8496H156.267Z" fill="#3F3D56"/>
<path id="Vector_7" d="M182.164 245.976H62.204C57.6984 245.971 53.3788 244.173 50.1928 240.977C47.0069 237.781 45.2148 233.447 45.2097 228.927V172.766C45.2148 168.246 47.0069 163.912 50.1928 160.716C53.3788 157.52 57.6984 155.722 62.204 155.717H182.164C186.669 155.722 190.989 157.52 194.175 160.716C197.361 163.912 199.153 168.246 199.158 172.766V228.927C199.153 233.447 197.361 237.781 194.175 240.977C190.989 244.173 186.669 245.971 182.164 245.976Z" fill="#F50057"/>
<path id="Vector_8" d="M372.1 245.976H252.141C247.635 245.971 243.315 244.173 240.129 240.977C236.943 237.781 235.151 233.447 235.146 228.927V172.766C235.151 168.246 236.943 163.912 240.129 160.716C243.315 157.52 247.635 155.722 252.141 155.717H372.1C376.606 155.722 380.926 157.52 384.112 160.716C387.298 163.912 389.09 168.246 389.095 172.766V228.927C389.09 233.447 387.298 237.781 384.112 240.977C380.926 244.173 376.606 245.971 372.1 245.976Z" fill="#F50057"/>
<path id="Vector_9" d="M562.037 245.976H442.077C437.571 245.971 433.252 244.173 430.066 240.977C426.88 237.781 425.088 233.447 425.083 228.927V172.766C425.088 168.246 426.88 163.912 430.066 160.716C433.252 157.52 437.571 155.722 442.077 155.717H562.037C566.542 155.722 570.862 157.52 574.048 160.716C577.234 163.912 579.026 168.246 579.031 172.766V228.927C579.026 233.447 577.234 237.781 574.048 240.977C570.862 244.173 566.542 245.971 562.037 245.976Z" fill="#F50057"/>
<path id="Vector_10" d="M182.164 364.316H62.204C57.6984 364.311 53.3788 362.513 50.1928 359.317C47.0069 356.121 45.2148 351.787 45.2097 347.267V291.106C45.2148 286.586 47.0069 282.252 50.1928 279.056C53.3788 275.86 57.6984 274.062 62.204 274.057H182.164C186.669 274.062 190.989 275.86 194.175 279.056C197.361 282.252 199.153 286.586 199.158 291.106V347.267C199.153 351.787 197.361 356.121 194.175 359.317C190.989 362.513 186.669 364.311 182.164 364.316Z" fill="#F50057"/>
<path id="Vector_11" d="M372.1 364.316H252.141C247.635 364.311 243.315 362.513 240.129 359.317C236.943 356.121 235.151 351.787 235.146 347.267V291.106C235.151 286.586 236.943 282.252 240.129 279.056C243.315 275.86 247.635 274.062 252.141 274.057H372.1C376.606 274.062 380.926 275.86 384.112 279.056C387.298 282.252 389.09 286.586 389.095 291.106V347.267C389.09 351.787 387.298 356.121 384.112 359.317C380.926 362.513 376.606 364.311 372.1 364.316Z" fill="#F50057"/>
<path id="Vector_12" d="M562.037 364.316H442.077C437.571 364.311 433.252 362.513 430.066 359.317C426.88 356.121 425.088 351.787 425.083 347.267V291.106C425.088 286.586 426.88 282.252 430.066 279.056C433.252 275.86 437.571 274.062 442.077 274.057H562.037C566.542 274.062 570.862 275.86 574.048 279.056C577.234 282.252 579.026 286.586 579.031 291.106V347.267C579.026 351.787 577.234 356.121 574.048 359.317C570.862 362.513 566.542 364.311 562.037 364.316Z" fill="#F50057"/>
<path id="Vector_13" d="M847 429.995H617.077C616.812 429.995 616.558 429.889 616.371 429.701C616.183 429.513 616.078 429.258 616.078 428.992C616.078 428.726 616.183 428.471 616.371 428.283C616.558 428.095 616.812 427.989 617.077 427.989H847C847.266 427.989 847.52 428.095 847.707 428.283C847.895 428.471 848 428.726 848 428.992C848 429.258 847.895 429.513 847.707 429.701C847.52 429.889 847.266 429.995 847 429.995Z" fill="#3F3D56"/>
</g>
<g id="Girl">
<path id="Vector_14" d="M706.879 96.3077C725.098 96.3077 739.868 81.4906 739.868 63.2127C739.868 44.9348 725.098 30.1176 706.879 30.1176C688.66 30.1176 673.89 44.9348 673.89 63.2127C673.89 81.4906 688.66 96.3077 706.879 96.3077Z" fill="#2F2E41"/>
<path id="Vector_15" d="M624.235 235.376C623.504 233.982 623.087 232.444 623.012 230.871C622.938 229.298 623.208 227.727 623.804 226.27C624.4 224.813 625.307 223.505 626.461 222.437C627.616 221.37 628.99 220.57 630.486 220.092L672.288 131.379L691.41 144.83L644.307 227.803C644.939 230.378 644.608 233.096 643.376 235.442C642.145 237.789 640.098 239.6 637.624 240.533C635.15 241.467 632.42 241.457 629.953 240.507C627.485 239.556 625.451 237.731 624.235 235.376Z" fill="#FFB8B8"/>
<path id="Vector_16" d="M660.055 143.157C659.856 142.492 659.802 141.792 659.897 141.104C659.993 140.417 660.235 139.758 660.607 139.173L673.604 118.732C675.049 115.49 677.716 112.954 681.021 111.682C684.326 110.409 688 110.504 691.236 111.944C694.472 113.384 697.006 116.053 698.284 119.365C699.562 122.677 699.478 126.363 698.052 129.613L691.505 153.033C691.318 153.702 690.99 154.322 690.542 154.852C690.095 155.381 689.539 155.808 688.913 156.103C688.286 156.397 687.604 156.553 686.912 156.559C686.22 156.565 685.534 156.422 684.903 156.139L662.702 146.179C662.07 145.896 661.506 145.479 661.049 144.958C660.593 144.436 660.254 143.822 660.055 143.157Z" fill="#F50057"/>
<path id="Vector_17" d="M765.235 244.171C763.706 243.815 762.273 243.127 761.037 242.155C759.802 241.183 758.794 239.951 758.084 238.546C757.375 237.141 756.981 235.597 756.931 234.023C756.88 232.448 757.175 230.882 757.793 229.434L718.204 139.705L740.851 133.982L772.644 223.983C775 225.186 776.834 227.214 777.798 229.683C778.763 232.152 778.791 234.89 777.878 237.379C776.965 239.867 775.173 241.933 772.843 243.185C770.513 244.437 767.806 244.788 765.235 244.171V244.171Z" fill="#FFB8B8"/>
<path id="Vector_18" d="M776.026 406.814L764.51 411.021L742.857 368.46L759.854 362.252L776.026 406.814Z" fill="#FFB8B8"/>
<path id="Vector_19" d="M755.087 410.724L777.297 402.612L782.388 416.641L746.195 429.861C745.526 428.019 745.226 426.063 745.311 424.104C745.396 422.145 745.864 420.222 746.69 418.445C747.516 416.668 748.682 415.072 750.123 413.747C751.564 412.422 753.251 411.395 755.087 410.724Z" fill="#2F2E41"/>
<path id="Vector_20" d="M744.588 379.893L700.716 302.87C700.292 302.124 700.074 301.28 700.083 300.422C700.092 299.564 700.328 298.724 700.768 297.988L720.524 264.956C720.992 264.172 721.673 263.538 722.486 263.127C723.299 262.716 724.212 262.544 725.119 262.633C726.025 262.721 726.888 263.065 727.607 263.626C728.326 264.187 728.872 264.94 729.182 265.8L766.533 369.566C766.944 370.695 766.919 371.938 766.462 373.05C766.005 374.162 765.15 375.062 764.065 375.573L750.83 381.862C750.192 382.165 749.494 382.322 748.787 382.322C747.936 382.323 747.1 382.099 746.363 381.673C745.626 381.246 745.014 380.632 744.588 379.893Z" fill="#2F2E41"/>
<path id="Vector_21" d="M703.876 99.3729C717.437 99.3729 728.429 88.3448 728.429 74.7411C728.429 61.1374 717.437 50.1093 703.876 50.1093C690.316 50.1093 679.323 61.1374 679.323 74.7411C679.323 88.3448 690.316 99.3729 703.876 99.3729Z" fill="#FFB8B8"/>
<path id="Vector_22" d="M668.953 186.313C649.617 143.301 669.11 119.262 678.388 110.923C681.061 108.518 684.525 107.189 688.115 107.191H722.703C725.187 107.191 727.63 107.828 729.799 109.041C731.968 110.255 733.793 112.004 735.098 114.124C736.404 116.243 737.148 118.663 737.26 121.152C737.372 123.641 736.847 126.118 735.736 128.346L712.614 174.738L669.141 186.732L668.953 186.313Z" fill="#F50057"/>
<path id="Vector_23" d="M719.553 155.786C718.921 155.502 718.358 155.085 717.902 154.564C717.445 154.042 717.107 153.427 716.909 152.762L709.987 129.533C708.488 126.316 708.32 122.635 709.522 119.296C710.723 115.956 713.195 113.23 716.396 111.716C719.597 110.201 723.265 110.021 726.598 111.215C729.931 112.409 732.656 114.88 734.177 118.086L747.563 138.367C747.945 138.946 748.198 139.601 748.305 140.287C748.412 140.972 748.37 141.673 748.183 142.342C747.996 143.01 747.667 143.63 747.219 144.159C746.772 144.688 746.216 145.115 745.589 145.409L723.563 155.752C722.936 156.047 722.254 156.203 721.562 156.208C720.87 156.214 720.184 156.07 719.553 155.786Z" fill="#F50057"/>
<path id="Vector_24" d="M696.915 418.444L684.659 418.443L678.829 371.019L696.917 371.02L696.915 418.444Z" fill="#FFB8B8"/>
<path id="Vector_25" d="M675.905 414.93H699.541V429.86H661.023C661.023 427.9 661.408 425.958 662.156 424.147C662.904 422.335 664 420.69 665.382 419.303C666.764 417.917 668.404 416.817 670.21 416.067C672.015 415.316 673.95 414.93 675.905 414.93Z" fill="#2F2E41"/>
<path id="Vector_26" d="M691.722 400.34L672.1 398.069C671.465 397.995 670.85 397.796 670.293 397.481C669.736 397.167 669.246 396.745 668.853 396.239C668.46 395.733 668.172 395.153 668.004 394.534C667.837 393.915 667.794 393.269 667.878 392.633L685.391 260.354C685.452 259.893 685.427 259.425 685.318 258.973L667.716 186.119C667.55 185.447 667.531 184.747 667.661 184.067C667.791 183.387 668.067 182.744 668.469 182.181C671.199 178.406 680.551 169.609 708.37 169.442H708.401C709.327 169.442 710.234 169.709 711.013 170.212C711.793 170.715 712.411 171.431 712.796 172.277L716.507 180.466C716.783 181.074 717.216 181.598 717.76 181.983C722.867 185.611 747.612 205.97 733.082 250.669C718.802 294.603 700.506 379.895 696.983 396.547C696.758 397.629 696.169 398.601 695.313 399.297C694.458 399.994 693.389 400.374 692.287 400.372C692.098 400.372 691.909 400.361 691.722 400.34Z" fill="#2F2E41"/>
<path id="Vector_27" d="M729.676 59.2478C724.065 63.1273 717.405 65.1919 710.591 65.1646C713.022 66.8554 715.789 67.9975 718.702 68.5122C709.642 70.4619 700.279 70.5147 691.197 68.6673C689.179 68.3425 687.231 67.6714 685.44 66.6833C684.547 66.1832 683.769 65.5001 683.157 64.6786C682.544 63.857 682.111 62.9154 681.886 61.9149C681.282 58.4565 683.968 55.3144 686.76 53.1968C691.034 50.0041 695.962 47.8044 701.188 46.7568C706.413 45.7093 711.805 45.8401 716.974 47.1398C720.349 48.015 723.731 49.4938 725.923 52.213C728.115 54.9322 728.764 59.1243 726.676 61.9244L729.676 59.2478Z" fill="#2F2E41"/>
<path id="Vector_28" d="M713.282 42.1136C710.478 41.1768 707.591 40.1942 705.369 38.2389C703.146 36.2836 701.736 33.0855 702.735 30.2944C703.697 27.6052 706.63 26.0342 709.47 25.8227C712.31 25.6112 715.106 26.4932 717.818 27.3646C716.592 25.5051 715.324 21.8999 714.215 18.0972C711.683 9.42057 722.232 1.49691 731.22 2.15088C731.485 2.17014 731.742 2.19777 731.989 2.23376C741.052 3.56036 745.754 7.02872 752.083 13.6697C760.002 21.9773 764.143 33.1869 766.916 44.3395C769.689 55.4921 771.317 66.9686 775.218 77.7765C779.118 88.5844 785.697 98.9736 795.757 104.475C801.267 107.388 807.469 108.726 813.685 108.342C819.902 107.957 825.893 105.866 831.005 102.296C831.701 107.042 831.272 111.886 829.754 116.435C828.235 120.984 825.669 125.11 822.264 128.479C818.859 131.847 814.711 134.363 810.155 135.823C805.6 137.282 800.766 137.644 796.045 136.879C783.057 134.775 772.653 124.281 767.096 112.317C761.539 100.354 760.022 86.964 758.628 73.84C757.233 60.7161 755.822 47.3299 750.445 35.284C748.269 30.4088 745.066 25.4467 739.342 24.6689C737.847 24.4242 736.314 24.6806 734.979 25.3982C733.644 26.1159 732.582 27.2549 731.957 28.639C729.441 34.7503 738.052 39.9256 735.845 45.7495C735.367 46.8768 734.577 47.843 733.569 48.5339C732.56 49.2248 731.376 49.6113 730.155 49.6478C725.993 49.9224 722.573 47.5292 719.352 45.2188C712.763 40.4928 713.282 42.1136 713.282 42.1136Z" fill="#2F2E41"/>
</g>
</g>
</svg>
